<svg viewBox="0 0 512 512" xmlns="http://www.w3.org/2000/svg"><path d="m233.22 0h45.56c129.2 0 233.22 104.02 233.22 233.22v45.56c0 129.2-104.02 233.22-233.22 233.22h-45.56c-129.2 0-233.22-104.02-233.22-233.22v-45.56c0-129.2 104.02-233.22 233.22-233.22z" fill="#eb3b5a"/><g fill="#fff" transform="matrix(.5 0 0 .5 128 128)"><path d="m113.6 193.06-87.204-50.347c-16.85 34.051-26.392 72.453-26.393 113.28 0 40.263 9.645 78.731 26.754 113.08l86.837-50.135c-8.565-19.286-13.418-40.558-13.417-62.949.001-22.39 4.857-43.655 13.423-62.934z"/><path d="m423.92 62.768c-44.99-39.134-103.78-62.811-168.1-62.768-88.001.059-166.55 44.985-212.7 113.82l87.275 50.39c28.381-38.714 74.04-64.041 125.6-64.04 37.587.001 72.042 13.437 98.954 35.701 6.588 5.449 16.218 4.95 22.263-1.095l47.531-47.531c6.854-6.854 6.487-18.121-.826-24.481z"/><path d="m510.25 226.38c-.997-8.475-8.122-14.89-16.653-14.89l-209.77-.011c-9.22 0-16.696 7.475-16.696 16.696v66.727c0 9.22 7.475 16.696 16.696 16.696h117.55c-10.827 28.179-29.633 52.403-53.575 70.013l49.928 86.478c50.256-34.056 88.467-85.547 105.3-146.33 9.15-33.049 10.797-65.007 7.222-95.378z"/><path d="m318.93 398.38c-19.255 8.578-40.511 13.444-62.927 13.446-51.619.001-97.252-25.327-125.61-64.026l-86.903 50.174c45.762 68.162 123.43 114.02 212.51 114.02 40.272 0 78.603-9.845 112.89-27.084z"/></g></svg>