<svg viewBox="0 0 512 512" xmlns="http://www.w3.org/2000/svg"><path d="m233.22-.000002h45.56c129.2 0 233.22 104.02 233.22 233.22v45.56c0 129.2-104.02 233.22-233.22 233.22h-45.56c-129.2 0-233.22-104.02-233.22-233.22v-45.56c0-129.2 104.02-233.22 233.22-233.22z" fill="#4b7bec"/><path d="m356.87 236.24c26.49-35.863 20.615-36.535 27.129-47.74h-50.764s-3.6074 12.525-4.709 14.768c-9.75 19.83-31.619 49.584-44.846 52.625-13.023 2.9961-11.295-27.781-10.492-41.113.75586-12.357.62695-16.682.26367-18.816-.53125-3.1191-3.1484-5.3945-6.2891-5.791-6.4746-.82031-18.223-1.9805-31.379-1.3711l-11.77.39062c4.6406 10.381 7.7754 7.1992 9.4844 19.209 1.9297 14.061 1.1699 48.273-12.678 48.273-22.199 0-47.117-66.672-47.91-68.174h-44.912l4.1094 10.283c33.119 82.91 74.541 121.31 131.21 124.5l7.375.21289.52734-7.1621c.79688-11.061 6.3457-26.982 16.188-26.982 14.541 0 18.742 4.2344 28.332 16.084 9.2207 11.361 15.574 18.061 30.453 18.061h37.801l-5.3906-10.84c-8.418-16.9-25.303-31.389-31.896-39.793-2.3887-3.1641-4.7402-8.166-2.3066-14.217 1.9902-5.2695 7.916-16.26 12.465-22.41z" fill="#fff"/></svg>