<svg viewBox="0 0 512 512" xmlns="http://www.w3.org/2000/svg"><path d="m233.22.000005h45.56c129.2 0 233.22 104.02 233.22 233.22v45.56c0 129.2-104.02 233.22-233.22 233.22h-45.56c-129.2 0-233.22-104.02-233.22-233.22v-45.56c0-129.2 104.02-233.22 233.22-233.22z" fill="#fc5c65"/><path d="m309.75 128h-36.372c-36.85 0-74.032 27.211-74.032 87.999 0 31.488 13.346 56.013 37.81 69.96l-44.777 81.047c-2.1224 3.8328-2.1776 8.1767-.14799 11.62 1.9816 3.3624 5.6039 5.3703 9.6895 5.3703h22.649c5.1455 0 9.1583-2.4872 11.081-6.8439l41.983-82.111h3.064v78.725c0 5.5479 4.6815 10.234 10.222 10.234h19.788c6.2135 0 10.553-4.3392 10.553-10.552v-234.25c.0008-6.5951-4.7319-11.201-11.509-11.201zm-29.052 130.56h-5.4047c-20.957 0-33.469-17.107-33.469-45.761 0-35.629 15.805-48.323 30.597-48.323h8.2767z" fill="#fff"/></svg>